<svg width="120" height="120" viewBox="0 0 120 120" fill="none" xmlns="http://www.w3.org/2000/svg">
<path d="M85.8621 55.8621H64.1379V34.1379C64.1379 31.8621 62.2759 30 60 30C57.7241 30 55.8621 31.8621 55.8621 34.1379V55.8621H34.1379C31.8621 55.8621 30 57.7241 30 60C30 62.2759 31.8621 64.1379 34.1379 64.1379H55.8621V85.8621C55.8621 88.1379 57.7241 90 60 90C62.2759 90 64.1379 88.1379 64.1379 85.8621V64.1379H85.8621C88.1379 64.1379 90 62.2759 90 60C90 57.7241 88.1379 55.8621 85.8621 55.8621Z" fill="white"/>
<rect x="1.5" y="1.5" width="117" height="117" rx="58.5" stroke="white" stroke-width="3"/>
</svg>
