<svg width="120" height="120" viewBox="0 0 120 120" fill="none" xmlns="http://www.w3.org/2000/svg">
<path d="M75.668 55.6667C71.9347 55.6667 68.468 54.0667 66.3347 51.1334C65.5347 50.0667 65.5347 48.2 66.868 47.4C67.9347 46.6 69.8014 46.6 70.6014 47.9334C71.9347 49.5334 73.8014 50.6001 75.9347 50.6001C78.6014 50.6001 80.7347 49 82.0681 46.8667C82.6014 46.0667 82.6014 45 82.6014 43.9334C82.3347 39.9334 79.4014 37 75.668 37C74.6014 37 73.5347 37.2667 72.468 37.8C71.668 38.3334 70.868 38.3334 70.068 38.0667C69.268 37.8 68.7347 37 68.468 36.2C66.868 30.3333 61.8014 26.3333 55.668 26.3333C49.5347 26.3333 44.468 30.3333 42.868 36.2C42.6013 37 42.068 37.5334 41.5347 37.8C38.6013 39.1334 37.0013 42.0667 37.0013 45C37.0013 45.8 37.0013 46.3334 37.268 47.1334C37.5346 48.4667 36.7346 50.0667 35.4013 50.3334C34.068 50.6001 32.468 49.8001 32.2013 48.4667C31.9346 47.1334 31.668 46.0667 31.668 45C31.668 40.4667 34.068 36.2 38.068 33.8C40.468 26.0667 47.668 21 55.668 21C63.1347 21 69.8014 25.5333 72.7347 31.9334C73.8014 31.6667 74.6014 31.6667 75.668 31.6667C82.3347 31.6667 87.6681 37 87.6681 43.6667C87.6681 45.5334 87.4014 47.1334 86.6014 48.7334C84.4681 53.0001 80.2014 55.6667 75.668 55.6667Z" fill="black"/>
<path d="M59.6667 71.4001C73.2667 71.4001 85.0001 63.4001 90.3334 50.8668V50.6001C90.3334 49.8001 90.3334 49.0001 89.8001 48.4667C89.2668 47.9334 88.4668 47.6667 87.6668 47.6667H84.4668C83.4001 50.8668 80.4668 53.0001 77.0001 53.0001C73.5334 53.0001 70.6001 50.8668 69.5334 47.6667H31.6667C30.8667 47.6667 30.0667 47.9334 29.5333 48.7334C29 49.2667 29 50.0668 29 50.8668V51.1334C34.3333 63.4001 46.0667 71.4001 59.6667 71.4001Z" fill="black"/>
<path d="M59.6691 76.7333C48.469 76.7333 38.3357 72.2 31.4023 64.2L37.0024 98.8667C37.269 99.9333 38.3357 101 39.669 101H79.6691C81.0024 101 82.0691 99.9333 82.3358 98.8667L88.2024 64.4666C81.0024 72.2 70.8691 76.7333 59.6691 76.7333Z" fill="black"/>
<rect x="1.5" y="1.5" width="117" height="117" rx="58.5" stroke="black" stroke-width="3"/>
</svg>