<svg width="120" height="120" viewBox="0 0 120 120" fill="none" xmlns="http://www.w3.org/2000/svg">
<path d="M90.4116 45.4558H78.8197V30H24.7279C20.4778 30 17 33.4814 17 37.7279V80.2278H24.7279C24.7279 86.6417 29.9059 91.8126 36.3162 91.8126C42.7337 91.8126 47.9082 86.6382 47.9082 80.2278H71.0883C71.0883 86.6417 76.2663 91.8126 82.6802 91.8126C89.0941 91.8126 94.2685 86.6382 94.2685 80.2278H102V60.908L90.4116 45.4558ZM36.3162 86.0255C33.111 86.0255 30.5221 83.4331 30.5221 80.2278C30.5221 77.019 33.1074 74.4301 36.3162 74.4301C39.5251 74.4301 42.114 77.0154 42.114 80.2278C42.114 83.4295 39.5249 86.0255 36.3162 86.0255ZM88.4778 51.25L96.0498 60.908H78.8162V51.25H88.4778ZM82.6838 86.0255C79.4749 86.0255 76.886 83.4331 76.886 80.2278C76.886 77.019 79.4714 74.4301 82.6838 74.4301C85.889 74.4301 88.4779 77.0154 88.4779 80.2278C88.4778 83.4295 85.8889 86.0255 82.6838 86.0255Z" fill="black"/>
<rect x="1.5" y="1.5" width="117" height="117" rx="58.5" stroke="black" stroke-width="3"/>
</svg>
