<svg width="20" height="20" viewBox="0 0 20 20" fill="none" xmlns="http://www.w3.org/2000/svg">
<path d="M12.9895 9.99964L19.3807 3.60869C20.2064 2.78296 20.2064 1.44502 19.3807 0.619294C18.5549 -0.206431 17.2169 -0.206431 16.3912 0.619294L10 7.01097L3.60882 0.620013C2.78307 -0.205713 1.44507 -0.205713 0.619317 0.620013C-0.206439 1.44574 -0.206439 2.78368 0.619317 3.60941L7.0105 10.0004L0.619317 16.3913C-0.206439 17.217 -0.206439 18.555 0.619317 19.3807C1.44507 20.2064 2.78307 20.2064 3.60882 19.3807L10 12.9898L16.3912 19.3807C17.2169 20.2064 18.5549 20.2064 19.3807 19.3807C20.2064 18.555 20.2064 17.217 19.3807 16.3913L12.9895 9.99964Z" fill="white"/>
</svg>
