<svg width="120" height="120" viewBox="0 0 120 120" fill="none" xmlns="http://www.w3.org/2000/svg">
<rect x="1.5" y="1.5" width="117" height="117" rx="58.5" stroke="white" stroke-width="3"/>
<path d="M51.0312 48.6638H54.7891V78.7265H51.0312V48.6638Z" fill="white"/>
<path d="M58.5469 48.6638H62.3047V78.7265H58.5469V48.6638Z" fill="white"/>
<path d="M66.0625 48.6638H69.8203V78.7265H66.0625V48.6638Z" fill="white"/>
<path d="M36 37.3901H84.8518V41.148H36V37.3901Z" fill="white"/>
<path d="M69.6949 39.2693H66.1876V35.5115C66.1876 34.3841 65.3107 33.5073 64.1834 33.5073H56.6677C55.5404 33.5073 54.6635 34.3841 54.6635 35.5115V39.2693H51.1562V35.5115C51.1562 32.5052 53.6615 30 56.6677 30H64.1834C67.1896 30 69.6949 32.5052 69.6949 35.5115V39.2693Z" fill="white"/>
<path d="M71.6994 90.0002H49.1524C46.1461 90.0002 43.5156 87.495 43.2651 84.4888L39.7578 39.3948L43.5156 39.1443L47.023 84.2382C47.1482 85.3656 48.1503 86.2424 49.1524 86.2424H71.6994C72.8267 86.2424 73.8288 85.2403 73.8288 84.2382L77.3361 39.1443L81.0939 39.3948L77.5866 84.4888C77.3361 87.6203 74.7056 90.0002 71.6994 90.0002Z" fill="white"/>
</svg>
