<svg width="120" height="120" viewBox="0 0 120 120" fill="none" xmlns="http://www.w3.org/2000/svg">
<path d="M66.2492 72.766L88.9995 95.5163L97 87.3262L74.2498 64.576L66.2492 72.766ZM80.3544 53.0492C78.8756 53.0492 77.2831 52.8596 76.0319 52.3287L32.8443 95.3267L24.8438 87.3262L52.9403 59.2676L46.229 52.5183L43.499 55.1725L38.001 49.8262V60.6705L35.3468 63.3247L22 49.8262L24.6542 47.172H35.3089L30.0005 41.8257L43.499 28.3272C47.9353 23.8909 55.0637 23.8909 59.5 28.3272L51.4995 36.5173L56.8458 41.8257L54.1537 44.5178L60.9409 51.2671L67.8418 44.1387C67.3109 42.8874 67.0834 41.2949 67.0834 39.8919C67.0834 32.4223 72.9985 26.5451 80.3544 26.5451C82.5915 26.5451 84.5632 27.076 86.3453 28.1376L76.2214 38.2615L81.909 43.9491L92.0329 33.8252C93.0945 35.6073 93.6254 37.5032 93.6254 39.8919C93.6254 47.172 87.7482 53.0492 80.3544 53.0492Z" fill="black"/>
<rect x="1.5" y="1.5" width="117" height="117" rx="58.5" stroke="black" stroke-width="3"/>
</svg>
