<svg width="120" height="120" viewBox="0 0 120 120" fill="none" xmlns="http://www.w3.org/2000/svg">
<path d="M74.7336 34H63.325C62.2625 34 61.2398 34.3984 60.4563 35.1156L47.4008 47.0687C47.3875 47.082 47.3742 47.1086 47.3609 47.1219C45.1562 49.1938 45.1961 52.5008 47.082 54.5594C48.7687 56.4055 52.3148 56.8969 54.5328 54.918C54.5461 54.9047 54.5727 54.9047 54.5859 54.8914L65.1977 45.1695C66.0609 44.3859 67.4156 44.4391 68.1992 45.3023C68.9961 46.1656 68.9297 47.507 68.0664 48.3039L64.6 51.4781L83.9375 67.1766C84.3227 67.4953 84.668 67.8406 84.9867 68.1992V42.5L77.7352 35.2484C76.9516 34.4516 75.8625 34 74.7336 34ZM89.25 42.5266V72.2633C89.25 74.6141 91.1492 76.5133 93.5 76.5133H102V42.5266H89.25ZM95.625 72.2633C94.4563 72.2633 93.5 71.307 93.5 70.1383C93.5 68.9695 94.4563 68.0133 95.625 68.0133C96.7937 68.0133 97.75 68.9695 97.75 70.1383C97.75 71.307 96.7937 72.2633 95.625 72.2633ZM17 76.5H25.5C27.8508 76.5 29.75 74.6008 29.75 72.25V42.5266H17V76.5ZM23.375 68.0133C24.5437 68.0133 25.5 68.9695 25.5 70.1383C25.5 71.307 24.5437 72.2633 23.375 72.2633C22.2063 72.2633 21.25 71.307 21.25 70.1383C21.25 68.9562 22.2063 68.0133 23.375 68.0133ZM81.268 70.4836L61.4391 54.3867L57.4547 58.0391C53.5102 61.6383 47.4672 61.293 43.9477 57.4547C40.375 53.55 40.6539 47.507 44.532 43.9477L55.3961 34H44.2664C43.1375 34 42.0617 34.4516 41.2648 35.2484L34 42.5V72.2367H36.4305L48.45 83.1141C52.0891 86.0758 57.4414 85.518 60.4031 81.8789L60.4297 81.8523L62.807 83.9109C64.9188 85.6375 68.0398 85.3055 69.7531 83.1937L73.9234 78.0672L74.6406 78.6516C76.4602 80.1258 79.143 79.8602 80.6172 78.0273L81.8789 76.4734C83.3664 74.6406 83.0875 71.9711 81.268 70.4836Z" fill="black"/>
<rect x="1.5" y="1.5" width="117" height="117" rx="58.5" stroke="black" stroke-width="3"/>
</svg>
