<svg width="233" height="51" viewBox="0 0 233 51" fill="none" xmlns="http://www.w3.org/2000/svg">
<rect x="1.5" y="1.5" width="229.667" height="48" stroke="black" stroke-width="3"/>
<path d="M23.5303 33V17.4848H29.3485C30.5404 17.4848 31.5404 17.6919 32.3485 18.1061C33.1616 18.5202 33.7753 19.101 34.1894 19.8485C34.6086 20.5909 34.8182 21.4571 34.8182 22.447C34.8182 23.4419 34.6061 24.3056 34.1818 25.0379C33.7626 25.7652 33.1439 26.3283 32.3258 26.7273C31.5076 27.1212 30.5025 27.3182 29.3106 27.3182H25.1667V24.9848H28.9318C29.6288 24.9848 30.1995 24.8889 30.6439 24.697C31.0884 24.5 31.4167 24.2146 31.6288 23.8409C31.846 23.4621 31.9545 22.9975 31.9545 22.447C31.9545 21.8965 31.846 21.4268 31.6288 21.0379C31.4116 20.6439 31.0808 20.346 30.6364 20.1439C30.1919 19.9369 29.6187 19.8333 28.9167 19.8333H26.3409V33H23.5303ZM31.5455 25.9697L35.3864 33H32.25L28.4773 25.9697H31.5455ZM47.0053 33V17.4848H57.0962V19.8409H49.8159V24.053H56.5735V26.4091H49.8159V30.6439H57.1568V33H47.0053ZM69.5636 17.4848H73.003L77.6091 28.7273H77.7909L82.397 17.4848H85.8364V33H83.1394V22.3409H82.9955L78.7076 32.9545H76.6924L72.4045 22.3182H72.2606V33H69.5636V17.4848ZM98.497 33V17.4848H104.436C105.558 17.4848 106.489 17.6616 107.232 18.0152C107.979 18.3636 108.537 18.8409 108.906 19.447C109.28 20.053 109.467 20.7399 109.467 21.5076C109.467 22.1389 109.345 22.6793 109.103 23.1288C108.861 23.5732 108.535 23.9343 108.126 24.2121C107.717 24.4899 107.26 24.6894 106.755 24.8106V24.9621C107.305 24.9924 107.833 25.1616 108.338 25.4697C108.848 25.7727 109.265 26.202 109.588 26.7576C109.911 27.3131 110.073 27.9848 110.073 28.7727C110.073 29.5758 109.878 30.298 109.489 30.9394C109.101 31.5758 108.515 32.0783 107.732 32.447C106.949 32.8157 105.964 33 104.777 33H98.497ZM101.308 30.6515H104.33C105.351 30.6515 106.085 30.4571 106.535 30.0682C106.989 29.6742 107.217 29.1692 107.217 28.553C107.217 28.0934 107.103 27.6793 106.876 27.3106C106.648 26.9369 106.325 26.6439 105.906 26.4318C105.487 26.2146 104.987 26.1061 104.406 26.1061H101.308V30.6515ZM101.308 24.0833H104.088C104.573 24.0833 105.01 23.9949 105.398 23.8182C105.787 23.6364 106.093 23.3813 106.315 23.053C106.542 22.7197 106.656 22.3258 106.656 21.8712C106.656 21.2702 106.444 20.7753 106.02 20.3864C105.601 19.9975 104.977 19.803 104.148 19.803H101.308V24.0833ZM122.118 33V17.4848H127.936C129.128 17.4848 130.128 17.6919 130.936 18.1061C131.749 18.5202 132.363 19.101 132.777 19.8485C133.196 20.5909 133.406 21.4571 133.406 22.447C133.406 23.4419 133.194 24.3056 132.769 25.0379C132.35 25.7652 131.731 26.3283 130.913 26.7273C130.095 27.1212 129.09 27.3182 127.898 27.3182H123.754V24.9848H127.519C128.216 24.9848 128.787 24.8889 129.231 24.697C129.676 24.5 130.004 24.2146 130.216 23.8409C130.433 23.4621 130.542 22.9975 130.542 22.447C130.542 21.8965 130.433 21.4268 130.216 21.0379C129.999 20.6439 129.668 20.346 129.224 20.1439C128.779 19.9369 128.206 19.8333 127.504 19.8333H124.928V33H122.118ZM130.133 25.9697L133.974 33H130.838L127.065 25.9697H130.133ZM147.585 33H144.585L150.047 17.4848H153.517L158.987 33H155.987L151.843 20.6667H151.722L147.585 33ZM147.684 26.9167H155.866V29.1742H147.684V26.9167ZM183.38 17.4848V33H180.88L173.57 22.4318H173.441V33H170.63V17.4848H173.145L180.448 28.0606H180.585V17.4848H183.38ZM201.3 33H196.043V17.4848H201.406C202.947 17.4848 204.27 17.7955 205.376 18.4167C206.487 19.0328 207.341 19.9192 207.937 21.0758C208.533 22.2323 208.831 23.6162 208.831 25.2273C208.831 26.8434 208.53 28.2323 207.929 29.3939C207.333 30.5556 206.472 31.447 205.346 32.0682C204.225 32.6894 202.876 33 201.3 33ZM198.853 30.5682H201.164C202.245 30.5682 203.146 30.3712 203.869 29.9773C204.591 29.5783 205.134 28.9848 205.497 28.197C205.861 27.404 206.043 26.4141 206.043 25.2273C206.043 24.0404 205.861 23.0556 205.497 22.2727C205.134 21.4848 204.596 20.8965 203.884 20.5076C203.177 20.1136 202.298 19.9167 201.247 19.9167H198.853V30.5682Z" fill="black"/>
</svg>
