<svg width="120" height="120" viewBox="0 0 120 120" fill="none" xmlns="http://www.w3.org/2000/svg">
<path d="M87.4951 89.8614L76.8581 62.0394L84.9606 58.1782C86.2279 57.7558 86.6503 56.4886 86.2279 55.6435L82.8483 46.3497L86.2279 37.0559C86.6503 36.2111 85.8055 34.9436 84.9606 34.5212L76.0893 30.2968L71.8646 21.4256C71.4422 20.1584 70.175 19.736 69.3299 20.1584L60.0361 23.5379L50.7425 20.1584C49.8977 19.736 48.6302 20.5808 48.2078 21.4256L43.9835 30.2968L35.1121 34.5214C33.8448 34.9438 33.4224 36.2111 33.8448 37.0561L37.2244 46.3499L33.8448 55.6435C33.4224 56.4883 34.2672 57.7558 35.1121 58.1782L43.0964 61.9802L33 89.4389C33 90.2838 33 91.1286 33.4224 91.5513C33.8448 92.3961 34.6897 92.3961 35.5347 92.3961L45.6734 90.7064L52.01 98.7328C52.4324 99.1552 52.8549 99.5776 53.6997 99.5776H54.1221C54.9669 99.5776 55.3893 99.1552 55.8117 98.3103L60.091 86.6763L64.6829 98.7328C65.1053 99.5776 65.5277 100 66.3725 100H66.795C67.6398 100 68.0622 99.5776 68.4846 99.1552L74.8213 91.1288L84.9599 92.8185C85.8047 92.8185 86.6496 92.3961 87.0722 91.9737C87.4951 91.551 87.9175 90.7062 87.4951 89.8614ZM38.9143 37.4785L46.9406 33.6766C47.363 33.6766 47.7854 33.2542 47.7854 32.8318L51.5874 24.8054L59.6137 27.7626C60.0361 27.7626 60.4585 27.7626 60.8809 27.7626L68.9073 24.8054L72.7092 32.8318C72.7092 33.2542 73.1316 33.6766 73.5541 33.6766L81.5804 37.4785L78.6232 45.5049C78.6232 45.9273 78.6232 46.3497 78.6232 46.7721L81.5804 54.7984L73.5541 58.6004C73.1316 58.6004 72.7092 59.0228 72.7092 59.4452L68.9073 67.4715L60.8809 64.5144C60.4585 64.5144 60.4585 64.5144 60.0361 64.5144C59.6137 64.5144 59.6137 64.5144 59.6137 64.5144L51.5874 67.4715L47.7854 59.4452C47.7854 59.0228 47.363 58.6004 46.9406 58.6004L38.9143 54.7984L41.8714 46.7721C41.8714 46.3497 41.8714 45.9273 41.8714 45.5049L38.9143 37.4785ZM53.2773 93.6633L48.2078 87.3266C47.7854 86.4818 46.9406 86.4818 46.0955 86.4818L38.0692 87.7491L45.8928 66.4116L48.2078 71.274C48.6302 72.5412 49.8975 72.9636 50.7425 72.5412L60.0364 69.1617L62.0006 69.8757L53.2773 93.6633ZM73.9769 86.0594C73.1321 86.0594 72.2873 86.4818 71.8646 86.9042L66.7952 93.2409L62.2625 80.7705L65.7647 71.2444L69.3302 72.5412C69.7526 72.5412 69.7526 72.5412 70.175 72.5412C70.5974 72.5412 71.4422 72.1188 71.8646 71.274L74.2683 66.23L82.003 87.3266L73.9769 86.0594Z" fill="black"/>
<path d="M57.5161 58.3999C56.77 58.3999 56.0644 58.0509 55.6108 57.4522L49.4846 49.3618C48.6878 48.3095 48.8952 46.8112 49.9475 46.0141C51.0014 45.2166 52.4987 45.4254 53.2958 46.477L57.3251 51.7975L67.459 35.526C68.1568 34.4066 69.63 34.0641 70.7519 34.7608C71.8723 35.4581 72.2145 36.9324 71.5164 38.0529L59.5451 57.2736C59.1293 57.9418 58.4113 58.3622 57.6251 58.3978C57.5885 58.3992 57.5525 58.3999 57.5161 58.3999Z" fill="#030104"/>
<rect x="1.5" y="1.5" width="117" height="117" rx="58.5" stroke="black" stroke-width="3"/>
</svg>
