<svg width="120" height="120" viewBox="0 0 120 120" fill="none" xmlns="http://www.w3.org/2000/svg">
<rect x="1.5" y="1.5" width="117" height="117" rx="58.5" stroke="white" stroke-width="3"/>
<path d="M87.8068 48.1076L85.155 50.7607L69.2426 34.8506L71.8945 32.1973C74.8238 29.2676 79.5741 29.2676 82.5036 32.1973L87.8068 37.5018C90.7322 40.4299 90.7322 45.1782 87.8068 48.1076ZM50.6796 79.9259C49.9473 80.6582 49.9473 81.8442 50.6796 82.5766C51.4122 83.313 52.5989 83.313 53.3312 82.5766L82.5036 53.4122L79.8488 50.7588L50.6796 79.9259ZM37.4194 66.6688C36.6868 67.4018 36.6868 68.5873 37.4194 69.3201C38.1517 70.0525 39.3384 70.0525 40.071 69.3201L69.2426 40.1534L66.5919 37.5018L37.4194 66.6688ZM71.891 42.803L42.722 71.9714C41.2573 73.4333 41.261 75.8098 42.722 77.2746C44.1873 78.7394 46.5601 78.7462 48.0286 77.2706L77.1976 48.1076L71.891 42.803ZM48.0211 85.2214C47.1242 84.3234 46.6919 83.1854 46.531 82.0127C46.1498 82.0716 45.7658 82.1264 45.3736 82.1264C43.3701 82.1264 41.4884 81.3432 40.071 79.9259C38.6537 78.5049 37.8736 76.6258 37.8736 74.6226C37.8736 74.2573 37.9284 73.9013 37.9799 73.5464C36.7676 73.3813 35.6472 72.8503 34.7682 71.9714C34.6839 71.8877 34.6548 71.774 34.578 71.6823L30 90L48.2701 85.4264C48.1896 85.3531 48.0985 85.2982 48.0211 85.2214Z" fill="white"/>
</svg>
