<svg width="14" height="22" viewBox="0 0 14 22" fill="none" xmlns="http://www.w3.org/2000/svg">
<path d="M5.34365 18.6685H9.06171V17.7002H5.34365V18.6685ZM2.55511 21.5736C2.04387 21.5736 1.60638 21.3841 1.24263 21.0051C0.87826 20.6255 0.696075 20.1695 0.696075 19.6369V2.2067C0.696075 1.67412 0.87826 1.21803 1.24263 0.838437C1.60638 0.459492 2.04387 0.27002 2.55511 0.27002H11.8503C12.3615 0.27002 12.7993 0.459492 13.1637 0.838437C13.5274 1.21803 13.7093 1.67412 13.7093 2.2067V19.6369C13.7093 20.1695 13.5274 20.6255 13.1637 21.0051C12.7993 21.3841 12.3615 21.5736 11.8503 21.5736H2.55511ZM2.55511 16.7318V19.6369H11.8503V16.7318H2.55511ZM2.55511 14.7952H11.8503V5.11173H2.55511V14.7952ZM2.55511 3.17505H11.8503V2.2067H2.55511V3.17505Z" fill="black"/>
</svg>
