<svg width="14" height="22" viewBox="0 0 14 22" fill="none" xmlns="http://www.w3.org/2000/svg">
<path d="M4.64758 18.3985H8.36564V17.4302H4.64758V18.3985ZM1.85903 21.3035C1.3478 21.3035 0.910305 21.1141 0.546555 20.7351C0.182185 20.3555 0 19.8994 0 19.3669V1.93669C0 1.4041 0.182185 0.948007 0.546555 0.568417C0.910305 0.189472 1.3478 0 1.85903 0H11.1542C11.6654 0 12.1032 0.189472 12.4676 0.568417C12.8313 0.948007 13.0132 1.4041 13.0132 1.93669V19.3669C13.0132 19.8994 12.8313 20.3555 12.4676 20.7351C12.1032 21.1141 11.6654 21.3035 11.1542 21.3035H1.85903ZM1.85903 16.4618V19.3669H11.1542V16.4618H1.85903ZM1.85903 14.5251H11.1542V4.84171H1.85903V14.5251ZM1.85903 2.90503H11.1542V1.93669H1.85903V2.90503Z" fill="white"/>
</svg>
