<svg width="50" height="50" viewBox="0 0 50 50" fill="none" xmlns="http://www.w3.org/2000/svg">
<path d="M10.8661 23.6863C18.1551 20.5113 23.0145 18.4179 25.4442 17.4066C32.3895 14.5187 33.8309 14.0171 34.7723 14.0001C34.9793 13.9968 35.4403 14.048 35.7411 14.2912C35.9911 14.4962 36.0614 14.7736 36.0965 14.9683C36.1278 15.1628 36.1708 15.6062 36.1356 15.9523C35.7606 19.9054 34.1317 29.4984 33.3036 33.9261C32.9559 35.7996 32.2645 36.4277 31.5965 36.489C30.1434 36.6226 29.0418 35.5296 27.6356 34.6082C25.4364 33.1656 24.1942 32.2679 22.0575 30.8605C19.5887 29.2339 21.1903 28.3398 22.5965 26.8789C22.9637 26.4964 29.3622 20.6781 29.4833 20.1503C29.4989 20.0843 29.5145 19.8382 29.3661 19.7085C29.2215 19.5785 29.0067 19.623 28.8504 19.6582C28.6278 19.7082 25.1161 22.0316 18.3036 26.6281C17.3075 27.3132 16.4051 27.6472 15.5926 27.6296C14.702 27.6105 12.9833 27.125 11.7059 26.7101C10.1434 26.2011 8.89731 25.932 9.00669 25.0675C9.06138 24.6175 9.68247 24.157 10.8661 23.6863Z" fill="white"/>
<path fill-rule="evenodd" clip-rule="evenodd" d="M25 0C11.1929 0 0 11.1929 0 25C0 38.8071 11.1929 50 25 50C38.8071 50 50 38.8071 50 25C50 11.1929 38.8071 0 25 0ZM25 5C13.9543 5 5 13.9543 5 25C5 36.0457 13.9543 45 25 45C36.0457 45 45 36.0457 45 25C45 13.9543 36.0457 5 25 5Z" fill="white"/>
</svg>
