<svg width="16" height="16" viewBox="0 0 16 16" fill="none" xmlns="http://www.w3.org/2000/svg">
<path d="M10.6178 9.71338C10.5101 9.68207 9.82882 9.40928 10.2545 8.25972H10.2484C11.3581 7.24445 12.2061 5.61073 12.2061 4.00231C12.2061 1.52916 10.3548 0.232666 8.20331 0.232666C6.05043 0.232666 4.20936 1.52856 4.20936 4.00231C4.20936 5.61736 5.05262 7.25769 6.16905 8.27056C6.60424 9.28463 5.82606 9.66099 5.66337 9.71399C3.41016 10.4378 0.76651 11.7572 0.76651 13.0597V13.5481C0.76651 15.3227 4.6398 15.7261 8.22433 15.7261C11.8143 15.7261 15.6388 15.3227 15.6388 13.5481V13.0597C15.6388 11.718 12.9822 10.4089 10.6178 9.71338Z" fill="black"/>
</svg>
