<svg width="50" height="50" viewBox="0 0 50 50" fill="none" xmlns="http://www.w3.org/2000/svg">
<path d="M37.4074 19.0474C37.586 18.4441 37.4074 18 36.5483 18H33.7054C32.9814 18 32.6484 18.3813 32.4698 18.806C32.4698 18.806 31.0218 22.3343 28.9753 24.6222C28.314 25.2834 28.01 25.4958 27.648 25.4958C27.4694 25.4958 27.1943 25.2834 27.1943 24.6801V19.0474C27.1943 18.3234 26.9915 18 26.393 18H21.9236C21.4699 18 21.1996 18.3379 21.1996 18.6516C21.1996 19.337 22.2228 19.4963 22.329 21.4269V25.6164C22.329 26.5335 22.1649 26.7024 21.8029 26.7024C20.8376 26.7024 18.4918 23.1597 17.1018 19.1053C16.8218 18.3186 16.5467 18 15.8179 18H12.975C12.1641 18 12 18.3813 12 18.806C12 19.559 12.9653 23.2997 16.4936 28.2421C18.8442 31.616 22.1553 33.4453 25.1671 33.4453C26.9771 33.4453 27.1991 33.0398 27.1991 32.34C27.1991 29.1158 27.035 28.8117 27.9424 28.8117C28.3623 28.8117 29.0863 29.0241 30.7756 30.6506C32.7063 32.5813 33.0249 33.4453 34.106 33.4453H36.9489C37.7598 33.4453 38.1701 33.0398 37.9336 32.2386C37.393 30.5541 33.7392 27.0886 33.5751 26.8569C33.1552 26.3163 33.2758 26.075 33.5751 25.5923C33.5799 25.5875 37.0503 20.7029 37.4074 19.0474Z" fill="white"/>
<path fill-rule="evenodd" clip-rule="evenodd" d="M25 0C11.1929 0 0 11.1929 0 25C0 38.8071 11.1929 50 25 50C38.8071 50 50 38.8071 50 25C50 11.1929 38.8071 0 25 0ZM25 5C13.9543 5 5 13.9543 5 25C5 36.0457 13.9543 45 25 45C36.0457 45 45 36.0457 45 25C45 13.9543 36.0457 5 25 5Z" fill="white"/>
</svg>
