<svg width="50" height="50" viewBox="0 0 50 50" fill="none" xmlns="http://www.w3.org/2000/svg">
<path d="M0.208984 24.7749C0.207617 29.1415 1.35352 33.4042 3.53203 37.1616L0 50L13.1975 46.5551C16.8338 48.5289 20.9279 49.5695 25.0939 49.5711H25.1047C38.825 49.5711 49.9941 38.4552 50 24.7948C50.0023 18.1744 47.4148 11.949 42.7148 7.26588C38.0143 2.58335 31.7643 0.00272218 25.1047 0C11.382 0 0.214453 11.1143 0.208984 24.7749ZM8.06836 36.5145L7.57559 35.7358C5.5041 32.4567 4.41074 28.6675 4.4123 24.7765C4.4168 13.4221 13.6988 4.18438 25.1125 4.18438C30.6398 4.18671 35.8344 6.33179 39.7414 10.2237C43.6482 14.116 45.798 19.2901 45.7967 24.7932C45.7916 36.1476 36.5094 45.3865 25.1047 45.3865H25.0965C21.383 45.3845 17.741 44.3917 14.5648 42.5156L13.809 42.0693L5.97734 44.1135L8.06836 36.5143V36.5145Z" fill="url(#paint0_linear_183_113)"/>
<path d="M18.8828 14.4174C18.4168 13.3863 17.9264 13.3655 17.4832 13.3474C17.1203 13.3319 16.7055 13.333 16.291 13.333C15.8762 13.333 15.2021 13.4884 14.6324 14.1077C14.0621 14.7276 12.4551 16.2255 12.4551 19.2722C12.4551 22.3191 14.6842 25.2636 14.9949 25.6771C15.3061 26.0899 19.2982 32.5423 25.6209 35.0245C30.8756 37.0873 31.9449 36.6771 33.0854 36.5736C34.226 36.4706 36.7658 35.076 37.284 33.63C37.8025 32.1841 37.8025 30.9447 37.6471 30.6857C37.4916 30.4277 37.0768 30.2728 36.4547 29.9632C35.8324 29.6535 32.7742 28.1553 32.2041 27.9486C31.6338 27.7421 31.2191 27.639 30.8043 28.2591C30.3895 28.8782 29.1982 30.2728 28.8352 30.6857C28.4725 31.0997 28.1094 31.1512 27.4875 30.8415C26.865 30.5308 24.8617 29.8776 22.485 27.7682C20.6357 26.1267 19.3873 24.0996 19.0244 23.4796C18.6615 22.8605 18.9855 22.5249 19.2975 22.2163C19.577 21.9388 19.9197 21.4931 20.2311 21.1317C20.5412 20.77 20.6447 20.512 20.8521 20.099C21.0598 19.6856 20.9559 19.324 20.8006 19.0142C20.6447 18.7045 19.4359 15.6418 18.8828 14.4174Z" fill="white"/>
<defs>
<linearGradient id="paint0_linear_183_113" x1="2500" y1="5000" x2="2500" y2="0" gradientUnits="userSpaceOnUse">
<stop/>
<stop offset="1" stop-color="white"/>
</linearGradient>
</defs>
</svg>
